HIERARCHY
ROOT root
{
	OFFSET	0	13.1	24.9
	CHANNELS 6  Xposition Yposition Zposition Xrotation Yrotation Zrotation
	JOINT spine_1
	{
		OFFSET	0	9.99999	0
		CHANNELS 3  Xrotation Yrotation Zrotation
		JOINT spine_2
		{
			OFFSET	0	112	-10
			CHANNELS 3  Xrotation Yrotation Zrotation
			JOINT spine_3
			{
				OFFSET	0	206.5	19.3
				CHANNELS 3  Xrotation Yrotation Zrotation
				JOINT spine_4
				{
					OFFSET	0	110.4	14.6
					CHANNELS 3  Xrotation Yrotation Zrotation
					JOINT neck_1
					{
						OFFSET	0	71.8	-50.3
						CHANNELS 3  Xrotation Yrotation Zrotation
						JOINT neck_2
						{
							OFFSET	0	86.2	-25.8
							CHANNELS 3  Xrotation Yrotation Zrotation
							JOINT head_ee
							{
								OFFSET	0	179.8	-8.7
								CHANNELS 3  Xrotation Yrotation Zrotation
								End Site
								{
									OFFSET	1	0	0
								}
							}
						}
					}
					JOINT left_clavicle
					{
						OFFSET	-43.2	22.4	-70.8
						CHANNELS 3  Xrotation Yrotation Zrotation
						JOINT left_shoulder
						{
							OFFSET	-93.9	-5.79999	48.7
							CHANNELS 3  Xrotation Yrotation Zrotation
							JOINT left_elbow
							{
								OFFSET	-291.4	-30.8	15.2
								CHANNELS 3  Xrotation Yrotation Zrotation
								JOINT left_lowarm_twist
								{
									OFFSET	-110.7	-3.89999	13.6
									CHANNELS 3  Xrotation Yrotation Zrotation
									JOINT left_hand
									{
										OFFSET	-110.7	-3.89999	13.6
										CHANNELS 3  Xrotation Yrotation Zrotation
										JOINT left_ee
										{
											OFFSET	-80.8	-5.10001	12.1
											CHANNELS 3  Xrotation Yrotation Zrotation
											End Site
											{
												OFFSET	1	0	0
											}
										}
									}
								}
							}
						}
					}
					JOINT right_clavicle
					{
						OFFSET	43.2	22.4	-70.8
						CHANNELS 3  Xrotation Yrotation Zrotation
						JOINT right_shoulder
						{
							OFFSET	93.9	-5.79999	48.7
							CHANNELS 3  Xrotation Yrotation Zrotation
							JOINT right_elbow
							{
								OFFSET	291.4	-30.8	15.2
								CHANNELS 3  Xrotation Yrotation Zrotation
								JOINT right_lowarm_twist
								{
									OFFSET	110.7	-3.89999	13.6
									CHANNELS 3  Xrotation Yrotation Zrotation
									JOINT right_hand
									{
										OFFSET	110.7	-3.89999	13.6
										CHANNELS 3  Xrotation Yrotation Zrotation
										JOINT right_ee
										{
											OFFSET	80.8	-5.10001	12.1
											CHANNELS 3  Xrotation Yrotation Zrotation
											End Site
											{
												OFFSET	1	0	0
											}
										}
									}
								}
							}
						}
					}
				}
			}
		}
	}
	JOINT left_hip
	{
		OFFSET	-82.8	-127.5	0.300001
		CHANNELS 3  Xrotation Yrotation Zrotation
		JOINT left_knee
		{
			OFFSET	-28.2	-396.7	2.2
			CHANNELS 3  Xrotation Yrotation Zrotation
			JOINT left_ankle
			{
				OFFSET	-11.7	-411.3	35.4
				CHANNELS 3  Xrotation Yrotation Zrotation
				JOINT left_toes
				{
					OFFSET	0	-60	-88.6
					CHANNELS 3  Xrotation Yrotation Zrotation
					JOINT left_foot_ee
					{
						OFFSET	-22.5	-16.5	-42.2
						CHANNELS 3  Xrotation Yrotation Zrotation
						End Site
						{
							OFFSET	1	0	0
						}
					}
				}
			}
		}
	}
	JOINT right_hip
	{
		OFFSET	82.8	-127.5	0.300001
		CHANNELS 3  Xrotation Yrotation Zrotation
		JOINT right_knee
		{
			OFFSET	28.2	-396.7	2.2
			CHANNELS 3  Xrotation Yrotation Zrotation
			JOINT right_ankle
			{
				OFFSET	11.7	-411.3	35.4
				CHANNELS 3  Xrotation Yrotation Zrotation
				JOINT right_toes
				{
					OFFSET	0	-60	-88.6
					CHANNELS 3  Xrotation Yrotation Zrotation
					JOINT right_foot_ee
					{
						OFFSET	22.5	-16.5	-42.2
						CHANNELS 3  Xrotation Yrotation Zrotation
						End Site
						{
							OFFSET	1	0	0
						}
					}
				}
			}
		}
	}
}
MOTION
Frames: 12
Frame Time: 0.02
1214.73 690.959 -598.233 90.0002 -89.3869 90.0002 1.60851 -0.114408 -0.308263 1.60856 -0.0945608 -0.314918 1.60909 -0.0354544 -0.326891 1.60895 -0.0866356 -0.31719 -12.895 3.53076 -2.49516 -12.9198 8.28258 -1.33904 -0.0 0.0 -0.0 7.00402 12.674 13.2606 7.13638 -17.9179 73.7576 1.15273 -29.7265 0.305935 -7.68058 -0.333074 0.922937 0.703686 29.1666 15.2974 -0.0 0.0 -0.0 9.95104 8.51784 -19.7396 -16.9427 5.12964 -64.2804 1.34765 33.7249 -0.408501 -23.1382 1.36122 -2.60652 5.24539 28.2382 -21.8647 0.0 0.0 0.0 6.26155 5.34345 2.98851 -19.0605 0.305635 2.89555 31.5078 10.7197 -4.06095 -14.267 0.0 0.0 -0.0 0.0 -0.0 11.8892 13.1554 2.53018 -53.1747 1.50976 -7.73196 32.61 -17.1215 4.2419 -17.7543 0.0 0.0 0.0 0.0 0.0 
1228.81 696.104 -596.386 90.0003 -89.4186 90.0003 1.64304 -0.186172 -0.464117 1.64315 -0.156262 -0.475023 1.64447 -0.067185 -0.495531 1.64415 -0.144601 -0.478702 -13.0957 4.12362 -1.4205 -13.1393 8.73407 -0.118881 -0.0 0.0 -0.0 7.42409 10.0306 14.1394 8.21971 -18.0999 73.4085 1.15856 -29.8513 0.308834 -7.92566 -0.345726 0.951614 0.150896 28.6047 12.0408 -0.0 0.0 -0.0 9.88033 7.36646 -19.5878 -17.9426 2.48578 -64.5473 1.29932 32.7657 -0.382003 -23.4741 1.38848 -2.63983 5.27397 27.8002 -22.344 0.0 0.0 0.0 4.83253 6.63333 2.48912 -17.688 0.315994 2.68523 29.9507 9.07731 -3.88785 -16.7622 0.0 0.0 -0.0 0.0 -0.0 15.5488 11.7116 1.46722 -54.8076 1.66615 -7.92908 33.3937 -15.9038 4.30672 -16.7858 0.0 0.0 0.0 0.0 0.0 
1245.26 698.323 -589.093 63.0619 -89.4299 64.2796 1.70666 -0.175395 -0.597109 1.70684 -0.137044 -0.60706 1.70832 -0.0249462 -0.621836 1.7078 -0.122839 -0.610093 -14.8598 4.53424 -0.612738 -14.9281 9.03358 0.917033 -0.0 0.0 -0.0 7.68902 6.20877 14.8034 10.1107 -18.1863 72.5314 1.17589 -30.2198 0.317509 -8.28694 -0.3646 0.993791 -0.439518 27.2909 8.29689 -0.0 0.0 -0.0 9.84941 3.5717 -19.4713 -19.5501 -0.88456 -64.7495 1.12979 29.2333 -0.294649 -25.223 1.53355 -2.81063 5.32107 27.9462 -22.567 0.0 0.0 0.0 2.97911 8.96331 1.53516 -14.9493 0.321598 2.26511 28.3046 7.86041 -3.70546 -18.4881 0.0 0.0 -0.0 0.0 -0.0 19.2477 9.33214 -0.0756824 -56.7778 1.86228 -8.16098 33.284 -15.689 4.29254 -16.2904 0.0 0.0 0.0 0.0 0.0 
1258.14 698.91 -585.427 -53.5164 -89.6626 -51.8496 1.72396 -0.164405 -0.824503 1.72433 -0.111608 -0.833293 1.72598 0.0407476 -0.839745 1.72501 -0.0923811 -0.835643 -15.0246 4.51228 1.0722 -15.0762 7.99427 2.51151 -0.0 0.0 -0.0 7.95531 3.78107 15.4028 11.5049 -18.438 71.8731 1.22181 -31.1832 0.340954 -8.9513 -0.400003 1.07104 -0.978027 24.2717 4.05905 -0.0 0.0 -0.0 9.70579 1.22943 -19.0986 -17.2558 -4.25556 -64.328 0.645485 17.732 -0.100689 -29.2227 1.88455 -3.18423 5.6153 27.7869 -24.679 0.0 0.0 0.0 2.09985 10.7413 0.472325 -12.7034 0.311207 1.92069 29.1222 4.90842 -3.7945 -20.8102 0.0 0.0 -0.0 0.0 -0.0 22.1841 7.45134 -1.00756 -52.0419 1.40461 -7.59265 28.0242 -14.6445 3.71184 -17.6262 0.0 0.0 0.0 0.0 0.0 
1275.85 695.525 -580.113 34.2463 -89.7576 36.2034 1.67123 -0.174047 -0.969163 1.67175 -0.112027 -0.978273 1.67371 0.0674229 -0.982355 1.67237 -0.0885603 -0.980675 -14.6015 5.00907 2.23381 -14.6421 8.23001 3.74049 -0.0 0.0 -0.0 7.76547 1.74182 15.0876 12.8216 -19.5534 71.7577 1.28804 -32.5387 0.375915 -9.53993 -0.432119 1.13914 -1.10025 20.2819 1.63691 -0.0 0.0 -0.0 9.48828 -1.62371 -18.529 -16.3775 -8.37169 -63.5678 0.339632 9.55042 -0.0283718 -31.249 2.07215 -3.364 5.56698 27.8503 -24.3047 0.0 0.0 0.0 0.3666 12.7818 -0.651312 -11.8206 0.303428 1.78547 30.1834 2.24046 -3.91654 -24.2583 0.0 0.0 -0.0 0.0 -0.0 25.3102 7.27073 -2.06753 -44.5936 0.784569 -6.62903 21.1071 -13.8527 2.88741 -18.6093 0.0 0.0 0.0 0.0 0.0 
1289.79 694.062 -577.054 -62.0643 -89.5896 -59.8251 1.70856 -0.181758 -1.11042 1.70924 -0.110735 -1.11974 1.71145 0.0936384 -1.1213 1.7097 -0.0846131 -1.12201 -14.9451 5.54938 4.20809 -14.9498 8.11098 5.80398 -0.0 0.0 -0.0 7.92726 0.371125 15.4349 14.0693 -20.3711 71.2915 1.33676 -33.5106 0.402472 -11.1852 -0.525587 1.32772 -1.50192 17.481 -2.02758 -0.0 0.0 -0.0 9.25114 -3.07302 -17.9779 -15.0993 -12.7744 -62.8412 0.201686 5.7056 -0.0100504 -32.5324 2.19423 -3.4744 5.76308 27.1967 -26.1044 0.0 0.0 0.0 -0.379657 14.2301 -1.26953 -10.789 0.291699 1.62762 31.0553 0.141798 -4.02086 -26.2428 0.0 0.0 -0.0 0.0 -0.0 27.2254 6.6212 -2.16899 -37.3872 0.308966 -5.62902 16.7813 -13.8108 2.33863 -19.4834 0.0 0.0 0.0 0.0 0.0 
1304.98 689.798 -570.793 -59.3146 -89.3649 -56.8699 1.73211 -0.256301 -1.20832 1.7329 -0.178899 -1.22218 1.73679 0.0445718 -1.2344 1.73469 -0.150923 -1.22595 -14.7898 5.4464 4.17292 -14.7918 7.91991 5.72535 -0.0 0.0 -0.0 7.60241 -0.893402 14.7982 15.6801 -21.5147 71.218 1.41385 -35.0047 0.44587 -12.7058 -0.616768 1.49959 -1.51692 12.4116 -4.46516 -0.0 0.0 -0.0 9.32299 -4.28179 -18.0495 -14.6563 -17.3812 -62.1684 0.186079 5.26666 -0.00855829 -33.7243 2.3098 -3.57448 5.96657 23.8268 -29.8787 0.0 0.0 0.0 -1.23589 16.0758 -2.35258 -10.1666 0.283249 1.5325 32.5993 -2.32875 -4.20196 -27.4698 0.0 0.0 -0.0 0.0 -0.0 28.7064 6.28375 -2.4067 -31.2404 0.00544057 -4.73536 14.4124 -13.1788 2.02502 -19.9046 0.0 0.0 0.0 0.0 0.0 
1316.85 687.511 -572.011 -50.3747 -89.4761 -47.851 1.68333 -0.26275 -1.2476 1.68418 -0.182836 -1.26179 1.68829 0.0489242 -1.27402 1.68606 -0.152881 -1.26576 -14.57 5.50026 4.51499 -14.5605 7.79597 6.04932 -0.0 0.0 -0.0 7.52191 -1.85285 14.6389 16.8286 -22.3493 70.7738 1.48087 -36.2607 0.484915 -13.7902 -0.684577 1.62067 -1.52453 8.73415 -6.21827 -0.0 0.0 -0.0 9.34379 -4.91783 -18.0493 -14.0046 -20.4073 -61.0351 0.199643 5.64817 -0.00984835 -34.5694 2.393 -3.64399 6.17518 21.6014 -32.9788 0.0 0.0 0.0 -1.59463 17.3717 -2.64354 -9.64733 0.275408 1.4532 33.7533 -4.25356 -4.34091 -28.3284 0.0 0.0 -0.0 0.0 -0.0 29.5361 6.47013 -1.81554 -26.2416 -0.169576 -3.9884 12.826 -12.6703 1.81139 -20.1683 0.0 0.0 0.0 0.0 0.0 
1332.12 685.387 -573.447 -50.6645 -89.3546 -47.8424 1.53589 -0.306157 -1.39488 1.53695 -0.216786 -1.41153 1.54244 0.0463088 -1.42732 1.53965 -0.179668 -1.41673 -15.0541 5.44172 4.7429 -15.0388 7.59811 6.27889 -0.0 0.0 -0.0 7.526 -2.23745 14.6471 18.0078 -23.2312 71.6412 1.55095 -37.5322 0.52699 -14.9524 -0.759784 1.749 -1.47716 5.34543 -7.47139 -0.0 0.0 -0.0 9.26621 -5.47523 -17.8605 -13.7919 -22.6227 -60.0544 0.214191 6.05678 -0.0113317 -35.5347 2.48928 -3.72187 6.47248 20.4668 -36.0949 0.0 0.0 0.0 -2.11297 18.3209 -3.00524 -9.48767 0.272852 1.42884 34.6064 -5.5928 -4.44426 -28.9283 0.0 0.0 -0.0 0.0 -0.0 30.5321 6.47812 -1.44213 -22.9905 -0.248149 -3.49574 11.7617 -11.8801 1.66565 -20.3404 0.0 0.0 0.0 0.0 0.0 
1342.49 683.897 -570.654 -57.2663 -89.1432 -54.3245 1.45854 -0.33469 -1.45392 1.45969 -0.241505 -1.47227 1.46609 0.0351554 -1.49153 1.46305 -0.200818 -1.47837 -15.0162 5.45862 4.95342 -14.9937 7.50142 6.47974 -0.0 0.0 -0.0 7.1365 -3.18554 13.8495 19.0525 -23.9033 71.8418 1.6893 -39.9203 0.613563 -15.4206 -0.79082 1.80027 -1.55516 4.08503 -8.56964 -0.0 0.0 -0.0 9.20604 -5.85857 -17.7176 -14.2215 -24.4644 -59.6772 0.202808 5.73713 -0.0101623 -35.5737 2.49319 -3.72498 6.49682 18.7558 -37.5151 0.0 0.0 0.0 -2.46865 18.9591 -3.3595 -9.01995 0.264976 1.3575 36.6311 -7.22348 -4.66562 -29.4099 0.0 0.0 -0.0 0.0 -0.0 30.9684 6.66518 -0.920056 -15.5181 -0.322086 -2.35238 8.08762 -11.1761 1.15874 -21.2355 0.0 0.0 0.0 0.0 0.0 
1361.44 677.05 -571.016 -62.1952 -88.6748 -58.947 1.29572 -0.416102 -1.60485 1.29709 -0.313152 -1.62807 1.30633 -0.00181751 -1.65791 1.30259 -0.263594 -1.63682 -14.186 5.29376 4.22689 -14.1784 7.53696 5.68435 -0.0 0.0 -0.0 7.39625 -3.3618 14.3776 20.0408 -24.2834 71.9924 1.8058 -41.81 0.689798 -15.9668 -0.827552 1.85976 -1.58296 2.99038 -9.26023 -0.0 0.0 -0.0 9.05452 -6.3003 -17.3953 -14.8888 -25.8938 -58.9912 0.254513 7.18602 -0.0159815 -35.7872 2.51468 -3.74197 6.65417 18.1165 -39.272 0.0 0.0 0.0 -3.18513 19.1928 -3.15899 -8.83664 0.26173 1.32956 38.3387 -8.33937 -4.84403 -29.9103 0.0 0.0 -0.0 0.0 -0.0 31.5143 7.40354 -1.13998 -8.43961 -0.254393 -1.26907 5.88543 -9.3235 0.847939 -21.8526 0.0 0.0 0.0 0.0 0.0 
1381.6 673.571 -567.025 -69.8966 -88.4294 -66.7618 1.24682 -0.371209 -1.55152 1.24812 -0.271742 -1.57199 1.2559 0.0297428 -1.59502 1.25242 -0.222503 -1.57971 -13.5627 5.4141 4.51112 -13.5446 7.52929 5.94928 -0.0 0.0 -0.0 7.37755 -3.73877 14.3359 20.4604 -24.7732 71.9328 1.86144 -42.6749 0.7272 -16.6885 -0.876958 1.93783 -1.56384 2.1142 -9.53484 -0.0 0.0 -0.0 9.05737 -6.90832 -17.3581 -15.0382 -26.7549 -58.522 0.230177 6.50509 -0.0130807 -36.1192 2.54822 -3.76824 6.75793 17.156 -40.8504 0.0 0.0 0.0 -3.83282 18.6336 -3.63712 -9.44637 0.27218 1.42253 39.1994 -8.80764 -4.93046 -29.704 0.0 0.0 -0.0 0.0 -0.0 31.9695 8.45671 -1.31821 -3.43086 -0.125977 -0.511381 3.66235 -7.97066 0.530938 -22.2619 0.0 0.0 0.0 0.0 0.0 
